<svg xmlns="http://www.w3.org/2000/svg" viewBox="0 0 1600 900"><rect width="1600" height="900" rx="28" fill="#0b1117"/><rect x="55" y="48" width="1490" height="804" rx="18" fill="#101820" stroke="#293743"/><text x="95" y="105" fill="#f5f7f8" font-family="Arial" font-size="30" font-weight="700">Behavioural Impact</text><text x="95" y="137" fill="#8ea2b1" font-family="Arial" font-size="17">S&amp;P 500 · LightGBM · five-day direction</text><rect x="95" y="178" width="1410" height="76" rx="12" fill="#17232c"/><text x="120" y="207" fill="#8ea2b1" font-family="Arial" font-size="14">MARKET</text><text x="120" y="236" fill="#fff" font-family="Arial" font-size="20" font-weight="700">S&amp;P 500</text><text x="420" y="207" fill="#8ea2b1" font-family="Arial" font-size="14">MODEL</text><text x="420" y="236" fill="#fff" font-family="Arial" font-size="20" font-weight="700">LightGBM</text><text x="720" y="207" fill="#8ea2b1" font-family="Arial" font-size="14">HORIZON</text><text x="720" y="236" fill="#fff" font-family="Arial" font-size="20" font-weight="700">5 trading days</text><rect x="1135" y="196" width="140" height="38" rx="19" fill="#dff6eb"/><text x="1205" y="221" text-anchor="middle" fill="#087a55" font-family="Arial" font-size="17" font-weight="700">BUY</text><text x="95" y="305" fill="#f5f7f8" font-family="Arial" font-size="22" font-weight="700">Technical baseline</text><text x="95" y="350" fill="#8ea2b1" font-family="Arial" font-size="15">Stage 1 · Technical indicators</text><text x="95" y="410" fill="#fff" font-family="Arial" font-size="52" font-weight="700">58.9%</text><text x="95" y="440" fill="#8ea2b1" font-family="Arial" font-size="14">F1 on original market</text><rect x="520" y="304" width="4" height="175" fill="#293743"/><text x="580" y="305" fill="#f5f7f8" font-family="Arial" font-size="22" font-weight="700">Technical + behavioural</text><text x="580" y="350" fill="#8ea2b1" font-family="Arial" font-size="15">Stage 2 · Technical + sentiment + VIX</text><text x="580" y="410" fill="#fff" font-family="Arial" font-size="52" font-weight="700">62.5%</text><text x="580" y="440" fill="#8ea2b1" font-family="Arial" font-size="14">F1 on original market</text><rect x="1030" y="304" width="410" height="175" rx="14" fill="#17232c"/><text x="1060" y="342" fill="#8ea2b1" font-family="Arial" font-size="14">BEHAVIOURAL IMPACT</text><text x="1060" y="394" fill="#fff" font-family="Arial" font-size="35" font-weight="700">+3.6 pts</text><text x="1060" y="427" fill="#8ea2b1" font-family="Arial" font-size="14">directional F1 improvement</text><path d="M95 570 C220 520 315 650 430 600 S650 525 770 615 S1000 570 1120 620 S1320 540 1445 585" fill="none" stroke="#1ba7d8" stroke-width="5"/><line x1="95" y1="705" x2="1445" y2="705" stroke="#293743"/><text x="95" y="545" fill="#8ea2b1" font-family="Arial" font-size="14">Five-day probability history</text><text x="95" y="755" fill="#8ea2b1" font-family="Arial" font-size="14">Evidence is shown alongside the signal so the interface communicates uncertainty rather than hiding it.</text></svg>